<svg xmlns="http://www.w3.org/2000/svg" id="Layer_1" viewBox="0 0 350 154.2"><defs><style>.cls-1{fill:#052b30;stroke-width:0px;}</style></defs><path class="cls-1" d="m97.54,26.62c0,23.43-33.84,26.59-33.84,36.56s36.66,46.38,52.09,49.23h-38.68c-16.26-12.35-30.86-32.92-30.86-44,0-17.22,31.12-16.46,31.12-39.57,0-8.52-4.98-24.85-22.72-24.85h-30.2v108.42H0V0h54.65c14.61,0,24.62,2.71,31.29,6.7,8.73,5.42,11.59,13.07,11.59,19.93"></path><path class="cls-1" d="m331.75,26.62c0,23.43-33.84,26.59-33.84,36.56s36.66,46.38,52.09,49.23h-38.68c-16.26-12.35-30.86-32.92-30.86-44,0-17.22,31.12-16.46,31.12-39.57,0-8.52-4.98-24.85-22.72-24.85h-30.2v108.42h-24.45V0h54.65c14.61,0,24.62,2.71,31.29,6.7,8.73,5.42,11.59,13.07,11.59,19.93"></path><path class="cls-1" d="m129.69,0l45.36,93.81,21.35-50.46c11.39-27.33,2.49-27.01,2.49-43.35h20.46l-47.5,112.41h-10.14L107.45,0h22.24Z"></path><path class="cls-1" d="m62.62,136.32l6.53,17.39h-4.35l-1.12-3.25h-6.31l-1.09,3.25h-4.32l6.51-17.39h4.15Zm.17,11.18l-2.24-6.63-2.29,6.63h4.52Z"></path><path class="cls-1" d="m77.23,139.7v-3.38h14.6v3.38h-5.24v14.01h-4.1v-14.01h-5.27Z"></path><path class="cls-1" d="m122.01,153.7h-5.17l6.11-9.04-5.56-8.34h4.87l3.33,5.71,3.35-5.71h4.87l-5.59,8.34,6.13,9.04h-5.17l-3.6-5.99-3.58,5.99Z"></path><path class="cls-1" d="m160.65,147.57c-.27,2.61-1.74,6.63-7.9,6.63-4.45,0-8.52-2.04-8.52-8.87,0-9.16,6.68-9.51,8.37-9.51,6.18,0,7.72,3.85,7.85,6.41h-4.02c-.4-2.91-2.68-3.03-3.63-3.03s-4.15.17-4.15,5.99c0,3.28,1.49,5.64,4.27,5.64s3.45-1.96,3.65-3.25h4.07Z"></path><path class="cls-1" d="m176.75,153.7h-4.1v-17.39h4.1v6.53h6.31v-6.53h4.1v17.39h-4.1v-7.48h-6.31v7.48Z"></path><path class="cls-1" d="m208.99,136.32l6.53,17.39h-4.35l-1.12-3.25h-6.31l-1.09,3.25h-4.32l6.51-17.39h4.15Zm.17,11.18l-2.24-6.63-2.29,6.63h4.52Z"></path><path class="cls-1" d="m230.68,142.83v10.88h-4.1v-17.39h4.15l6.85,10.8h.07v-10.8h4.1v17.39h-4.17l-6.85-10.88h-.05Z"></path><path class="cls-1" d="m271.14,144.27v9.44h-3.05v-1.86h-.05c-1.17,1.79-2.86,2.36-5.27,2.36-7.53,0-8.57-5.94-8.57-9.24,0-3.53,1.39-9.14,9.16-9.14,5.04,0,7.15,3.18,7.62,6.13h-4.3c-.07-.7-.47-2.76-3.35-2.76-4.77,0-4.72,4.89-4.72,5.89,0,1.04.1,5.74,4.59,5.74,1.79,0,3.8-1.02,4-3.4h-3.48v-3.15h7.4Z"></path><path class="cls-1" d="m296.64,143.22v3.2h-8.49v3.9h9.88v3.38h-13.98v-17.39h13.73v3.38h-9.64v3.53h8.49Z"></path></svg>